<?xml version="1.0" standalone="no"?>
<!DOCTYPE svg PUBLIC "-//W3C//DTD SVG 20010904//EN"
 "http://www.w3.org/TR/2001/REC-SVG-20010904/DTD/svg10.dtd">
<svg version="1.0" xmlns="http://www.w3.org/2000/svg"
 width="207.000000pt" height="207.000000pt" viewBox="0 0 207.000000 207.000000"
 preserveAspectRatio="xMidYMid meet">
<metadata>
Created by potrace 1.11, written by Peter Selinger 2001-2013
</metadata>
<g transform="translate(0.000000,207.000000) scale(0.100000,-0.100000)"
fill="#000000" stroke="none">
<path d="M1295 1976 c-20 -31 -18 -50 36 -275 21 -90 39 -166 39 -169 0 -3
-25 35 -56 84 -30 49 -74 108 -97 132 -55 56 -166 110 -245 118 -55 6 -62 5
-85 -19 -17 -16 -24 -32 -21 -44 4 -13 -8 -38 -32 -70 l-37 -50 -35 34 c-44
44 -88 63 -147 63 -109 0 -185 -81 -185 -197 0 -88 42 -169 138 -263 l77 -76
-97 0 c-112 1 -136 -11 -124 -61 10 -41 112 -133 194 -176 110 -58 149 -69
262 -76 l104 -6 -149 -55 c-259 -96 -307 -129 -265 -183 33 -42 94 -60 220
-65 136 -5 171 5 318 92 l93 55 -125 -132 c-258 -273 -297 -340 -221 -376 64
-31 224 21 310 100 49 45 124 152 199 284 25 44 46 77 46 72 0 -4 -16 -59 -35
-123 -36 -120 -88 -321 -100 -387 -8 -47 14 -87 48 -87 58 0 185 117 231 213
35 72 45 149 53 385 3 111 10 202 15 202 4 0 8 70 8 155 0 131 -2 155 -15 155
-13 0 -15 25 -15 168 0 194 -13 319 -40 380 -41 92 -154 205 -217 218 -26 5
-34 2 -48 -20z m265 -615 c0 -21 -3 -59 -6 -85 -6 -40 -10 -47 -27 -44 -16 2
-26 23 -48 98 -16 52 -31 108 -35 124 l-6 28 61 -41 c57 -39 61 -44 61 -80z
m-330 -5 l75 -78 -87 62 c-49 34 -88 64 -88 65 0 12 14 35 19 33 3 -2 40 -38
81 -82z m182 -3 c31 -58 62 -152 54 -161 -7 -6 -155 136 -187 181 l-20 27 64
0 64 0 25 -47z m-125 -122 c80 -60 123 -101 107 -101 -17 0 -314 103 -314 109
0 7 97 48 117 50 6 1 47 -26 90 -58z m-272 -21 c19 -8 19 -9 -2 -9 -12 -1 -25
4 -28 9 -7 12 2 12 30 0z m174 -80 c83 -12 221 -50 221 -61 0 -4 -26 -15 -57
-24 -32 -9 -75 -21 -96 -27 l-37 -11 -73 69 c-39 37 -74 70 -77 72 -3 2 6 1
20 -2 14 -3 58 -10 99 -16z m238 -135 c1 -5 -36 -38 -85 -73 -97 -70 -107 -71
-197 -32 l-50 22 40 15 c89 32 261 82 274 80 8 -1 16 -6 18 -12z m-6 -149
c-77 -152 -71 -146 -146 -146 -36 0 -65 4 -65 9 0 16 244 243 248 231 3 -7
-14 -49 -37 -94z m139 -40 l0 -104 -64 -40 c-36 -22 -63 -35 -61 -29 2 7 22
72 45 145 34 110 44 132 60 132 19 0 20 -7 20 -104z"/>
</g>
</svg>
